<?xml version="1.0" encoding="UTF-8"?>
<svg width="22px" height="16px" viewBox="0 0 22 16" version="1.1" xmlns="http://www.w3.org/2000/svg" xmlns:xlink="http://www.w3.org/1999/xlink">
    <title>Group 15</title>
    <g id="2023.02.06" stroke="none" stroke-width="1" fill="none" fill-rule="evenodd">
        <g id="Deep-Counter-Copy" transform="translate(-100, -451)" fill="#FFFFFF">
            <g id="Group-3" transform="translate(64, 431)">
                <g id="Group-15" transform="translate(36, 20)">
                    <path d="M22,0 L22,16 L0,16 L0,0 L22,0 Z M6,11 L4,11 L4,13 L6,13 L6,11 Z M18,11 L7,11 L7,13 L18,13 L18,11 Z M6,7 L4,7 L4,9 L6,9 L6,7 Z M18,7 L7,7 L7,9 L18,9 L18,7 Z M6,3 L4,3 L4,5 L6,5 L6,3 Z M18,3 L7,3 L7,5 L18,5 L18,3 Z" id="Combined-Shape"></path>
                </g>
            </g>
        </g>
    </g>
</svg>